<svg width="40" height="40" viewBox="0 0 40 40" fill="none" xmlns="http://www.w3.org/2000/svg">
<g clip-path="url(#clip0_170_115)">
<path d="M26.8133 10.6867C26.2392 9.94548 25.4578 9.3915 24.5683 9.095L22.2717 8.34833C22.0953 8.28557 21.9428 8.16977 21.8349 8.01684C21.727 7.86391 21.669 7.68133 21.669 7.49417C21.669 7.307 21.727 7.12443 21.8349 6.97149C21.9428 6.81856 22.0953 6.70276 22.2717 6.64L24.5683 5.89333C25.2479 5.65864 25.8652 5.27222 26.3731 4.76338C26.8811 4.25454 27.2665 3.63667 27.5 2.95667L27.5183 2.9L28.265 0.605C28.3271 0.427523 28.4428 0.273733 28.5961 0.164921C28.7494 0.0561082 28.9328 -0.00234413 29.1208 -0.00234413C29.3089 -0.00234413 29.4922 0.0561082 29.6456 0.164921C29.7989 0.273733 29.9146 0.427523 29.9767 0.605L30.7217 2.9C30.9546 3.59757 31.3468 4.23128 31.8672 4.75086C32.3877 5.27045 33.022 5.66161 33.72 5.89333L36.015 6.64L36.0617 6.65167C36.238 6.71443 36.3906 6.83023 36.4985 6.98316C36.6064 7.13609 36.6643 7.31867 36.6643 7.50583C36.6643 7.693 36.6064 7.87557 36.4985 8.02851C36.3906 8.18144 36.238 8.29723 36.0617 8.36L33.765 9.10667C33.0674 9.33861 32.4333 9.72987 31.9132 10.2494C31.393 10.769 31.0011 11.4026 30.7683 12.1L30.0217 14.395L30 14.4517C29.928 14.6194 29.807 14.7614 29.653 14.8593C29.4989 14.9571 29.3189 15.0062 29.1365 15.0001C28.9541 14.994 28.7777 14.9329 28.6306 14.825C28.4834 14.717 28.3723 14.5672 28.3117 14.395L27.565 12.1C27.3982 11.5892 27.1445 11.1111 26.815 10.6867M39.64 17.0217L38.3633 16.6083C37.9759 16.4788 37.624 16.261 37.3353 15.972C37.0466 15.683 36.8291 15.3308 36.7 14.9433L36.2833 13.67C36.2488 13.5716 36.1846 13.4863 36.0995 13.4259C36.0144 13.3656 35.9127 13.3332 35.8083 13.3332C35.704 13.3332 35.6023 13.3656 35.5172 13.4259C35.4321 13.4863 35.3678 13.5716 35.3333 13.67L34.92 14.9433C34.7932 15.3284 34.5793 15.6789 34.2948 15.9677C34.0104 16.2565 33.6631 16.4758 33.28 16.6083L32.005 17.0217C31.9066 17.0562 31.8213 17.1204 31.7609 17.2055C31.7006 17.2906 31.6682 17.3923 31.6682 17.4967C31.6682 17.601 31.7006 17.7027 31.7609 17.7878C31.8213 17.8729 31.9066 17.9372 32.005 17.9717L33.28 18.3867C33.6685 18.5162 34.0215 18.7347 34.3108 19.0246C34.6002 19.3145 34.8179 19.6679 34.9467 20.0567L35.36 21.33C35.3945 21.4284 35.4587 21.5137 35.5438 21.5741C35.6289 21.6344 35.7307 21.6668 35.835 21.6668C35.9393 21.6668 36.0411 21.6344 36.1262 21.5741C36.2113 21.5137 36.2755 21.4284 36.31 21.33L36.725 20.0567C36.8543 19.669 37.072 19.3167 37.361 19.0277C37.65 18.7387 38.0023 18.521 38.39 18.3917L39.665 17.9783C39.7634 17.9438 39.8487 17.8796 39.9091 17.7945C39.9694 17.7094 40.0018 17.6077 40.0018 17.5033C40.0018 17.399 39.9694 17.2973 39.9091 17.2122C39.8487 17.1271 39.7634 17.0628 39.665 17.0283L39.64 17.0217ZM20 3.33333C21.595 3.33333 23.1383 3.55833 24.6 3.97667C24.4056 4.09556 24.2 4.19167 23.9833 4.265L21.75 4.99833C21.2717 5.17 20.8633 5.465 20.5617 5.845C17.8389 5.7372 15.1429 6.41691 12.7967 7.80266C10.4505 9.18841 8.55369 11.2214 7.33371 13.6579C6.11374 16.0944 5.62233 18.8311 5.9184 21.5398C6.21447 24.2486 7.28545 26.8145 9.00295 28.9299C10.7205 31.0454 13.0116 32.6206 15.6018 33.4668C18.1919 34.313 20.9712 34.3943 23.6063 33.7008C26.2415 33.0074 28.6208 31.5687 30.4589 29.5572C32.2971 27.5458 33.5162 25.0468 33.97 22.36C34.3367 22.97 34.8733 23.415 35.7667 23.415C35.9722 23.415 36.16 23.3928 36.33 23.3483C34.78 30.95 28.0583 36.6667 20 36.6667C10.795 36.6667 3.33333 29.205 3.33333 20C3.33333 10.795 10.795 3.33333 20 3.33333ZM25.8333 14.5833C25.8333 14.4011 25.8731 14.221 25.95 14.0557C26.0268 13.8905 26.1389 13.744 26.2783 13.6267L26.6667 14.9983C26.9367 15.7867 27.5667 16.3833 28.3333 16.6283V25.4167C28.3333 25.7482 28.2016 26.0661 27.9672 26.3005C27.7328 26.535 27.4149 26.6667 27.0833 26.6667C26.7518 26.6667 26.4339 26.535 26.1995 26.3005C25.965 26.0661 25.8333 25.7482 25.8333 25.4167V14.5833ZM18.3333 14.5833C18.3333 14.2518 18.2016 13.9339 17.9672 13.6994C17.7328 13.465 17.4149 13.3333 17.0833 13.3333C16.7518 13.3333 16.4339 13.465 16.1995 13.6994C15.965 13.9339 15.8333 14.2518 15.8333 14.5833V25.4167C15.8333 25.7482 15.965 26.0661 16.1995 26.3005C16.4339 26.535 16.7518 26.6667 17.0833 26.6667C17.4149 26.6667 17.7328 26.535 17.9672 26.3005C18.2016 26.0661 18.3333 25.7482 18.3333 25.4167V14.5833ZM23.3333 17.0833C23.3333 16.7518 23.2016 16.4339 22.9672 16.1994C22.7328 15.965 22.4149 15.8333 22.0833 15.8333C21.7518 15.8333 21.4339 15.965 21.1995 16.1994C20.965 16.4339 20.8333 16.7518 20.8333 17.0833V22.9167C20.8333 23.2482 20.965 23.5661 21.1995 23.8005C21.4339 24.035 21.7518 24.1667 22.0833 24.1667C22.4149 24.1667 22.7328 24.035 22.9672 23.8005C23.2016 23.5661 23.3333 23.2482 23.3333 22.9167V17.0833ZM13.3333 17.9167C13.3333 17.5851 13.2016 17.2672 12.9672 17.0328C12.7328 16.7984 12.4149 16.6667 12.0833 16.6667C11.7518 16.6667 11.4339 16.7984 11.1995 17.0328C10.965 17.2672 10.8333 17.5851 10.8333 17.9167V22.0833C10.8333 22.4149 10.965 22.7328 11.1995 22.9672C11.4339 23.2016 11.7518 23.3333 12.0833 23.3333C12.4149 23.3333 12.7328 23.2016 12.9672 22.9672C13.2016 22.7328 13.3333 22.4149 13.3333 22.0833V17.9167Z" fill="#FFBC9A"/>
</g>
<defs>
<clipPath id="clip0_170_115">
<rect width="40" height="40" fill="white"/>
</clipPath>
</defs>
</svg>
